<svg width="512" height="512" viewBox="0 0 512 512" fill="none" xmlns="http://www.w3.org/2000/svg">
<g clip-path="url(#clip0_4_7944)">
<mask id="mask0_4_7944" style="mask-type:luminance" maskUnits="userSpaceOnUse" x="0" y="0" width="512" height="512">
<path d="M512 0H0V512H512V0Z" fill="white"/>
</mask>
<g mask="url(#mask0_4_7944)">
<path d="M321.227 466.842L351.259 459.734L321.227 466.842Z" fill="#2D180C"/>
<path d="M321.227 466.842L351.259 459.734" stroke="#190D06" stroke-width="8" stroke-linecap="round" stroke-linejoin="round"/>
<path d="M331.727 470.842L361.759 463.734L331.727 470.842Z" fill="#2D180C"/>
<path d="M331.727 470.842L361.759 463.734" stroke="#190D06" stroke-width="8" stroke-linecap="round" stroke-linejoin="round"/>
<path d="M326.477 469.092L356.509 461.984L326.477 469.092Z" fill="#2D180C"/>
<path d="M326.477 469.092L356.509 461.984" stroke="#190D06" stroke-width="8" stroke-linecap="round" stroke-linejoin="round"/>
<path d="M382.973 196.891V95.6646" stroke="#753629" stroke-width="8" stroke-linecap="round" stroke-linejoin="round"/>
<path d="M320.754 112.459L372 91.7808" stroke="#4F2016" stroke-width="8" stroke-linecap="round" stroke-linejoin="round"/>
<path d="M326.225 114.367L377.471 93.689" stroke="#3A180F" stroke-width="8" stroke-linecap="round" stroke-linejoin="round"/>
<path d="M331.727 116.343L382.973 95.6646" stroke="#4F2016" stroke-width="8" stroke-linecap="round" stroke-linejoin="round"/>
<path d="M320.754 466.959V112.459" stroke="#351010" stroke-width="8" stroke-linecap="round" stroke-linejoin="round"/>
<path d="M326.227 468.867V114.367" stroke="#260A0A" stroke-width="8" stroke-linecap="round" stroke-linejoin="round"/>
<path d="M331.727 470.843V116.343" stroke="#351010" stroke-width="8" stroke-linecap="round" stroke-linejoin="round"/>
<path d="M401.049 110.328L204.037 45.96L195.223 46.66C183.526 47.589 172.217 55.284 162.23 61.444L204.037 96.005V395.13C230.128 403.878 346.399 442.332 346.399 442.332C350.422 443.705 354.375 444.757 358.241 445.512L401.049 455.498C415.787 460.313 427.734 452.269 427.734 437.532V145.731C427.734 130.994 415.787 115.143 401.049 110.328Z" fill="url(#paint0_linear_4_7944)"/>
<path d="M401.049 110.328L204.036 45.9598C204.036 45.9598 181.079 45.1708 162.23 61.4438L170.275 64.1798V395.266C171.048 395.525 161.246 405.55 162.23 405.914C163.059 406.221 174.645 396.851 175.615 397.228C212.308 411.481 346.399 438.332 346.399 438.332C350.422 439.705 354.375 440.757 358.241 441.512L401.049 455.498C415.787 460.313 427.733 452.269 427.733 437.532V145.731C427.733 130.994 415.787 115.143 401.049 110.328Z" stroke="#7C362D" stroke-width="8" stroke-linecap="round" stroke-linejoin="round"/>
<path d="M325.175 85.5379L227.643 53.6719" stroke="#AD4D45" stroke-width="8" stroke-linecap="round" stroke-linejoin="round"/>
<path d="M427.733 145.731C427.733 130.994 415.786 115.143 401.048 110.328L369.053 99.875" stroke="#AD4D45" stroke-width="8" stroke-linecap="round" stroke-linejoin="round"/>
<path d="M391.64 457.242L194.627 392.874V52.7036L391.64 117.072C406.377 121.887 418.325 137.738 418.325 152.475V439.276C418.325 454.013 406.377 462.057 391.64 457.242Z" fill="url(#paint1_linear_4_7944)"/>
<path d="M391.64 457.242L194.627 392.874V52.7036L391.64 117.072C406.377 121.887 418.325 137.738 418.325 152.475V439.276C418.325 454.013 406.377 462.057 391.64 457.242Z" stroke="url(#paint2_linear_4_7944)" stroke-width="5" stroke-linecap="round" stroke-linejoin="round"/>
<path d="M382.134 460.763L185.121 396.395V56.2246L382.134 120.593C396.871 125.408 408.819 141.259 408.819 155.996V442.797C408.819 457.534 396.871 465.578 382.134 460.763Z" fill="url(#paint3_linear_4_7944)"/>
<path d="M382.134 460.763L185.121 396.395V56.2246L382.134 120.593C396.871 125.408 408.819 141.259 408.819 155.996V442.797C408.819 457.534 396.871 465.578 382.134 460.763Z" stroke="url(#paint4_linear_4_7944)" stroke-width="5" stroke-linecap="round" stroke-linejoin="round"/>
<path d="M372.626 464.284L175.613 399.916V59.7456L372.626 124.114C387.363 128.929 399.311 144.78 399.311 159.517V446.318C399.311 461.055 387.363 469.099 372.626 464.284Z" fill="url(#paint5_linear_4_7944)"/>
<path d="M372.626 464.284L175.613 399.916V59.7456L372.626 124.114C387.363 128.929 399.311 144.78 399.311 159.517V446.318C399.311 461.055 387.363 469.099 372.626 464.284Z" stroke="url(#paint6_linear_4_7944)" stroke-width="5" stroke-linecap="round" stroke-linejoin="round"/>
<path d="M174.238 60.5978L201.27 50.9058L174.238 60.5978Z" fill="url(#paint7_linear_4_7944)"/>
<path d="M174.238 60.5978L201.27 50.9058" stroke="#B7A176" stroke-width="8" stroke-linecap="round" stroke-linejoin="round"/>
<path d="M228.011 179.516C227.468 253.135 222.307 290.08 222.307 290.08" stroke="#1467A3" stroke-width="3.5" stroke-linecap="round" stroke-linejoin="round"/>
<path d="M205.283 204.947C218.264 227.101 226.411 238.525 226.411 238.525" stroke="#1467A3" stroke-width="3.5" stroke-linecap="round" stroke-linejoin="round"/>
<path d="M236.747 237.524C236.747 237.524 238.557 222.026 243.7 221.736C250.382 221.36 247.223 252.875 240.224 252.875C235.34 252.875 234.677 242.942 236.054 235.266" stroke="#1467A3" stroke-width="3.5" stroke-linecap="round" stroke-linejoin="round"/>
<path d="M254.266 215.139C254.871 229.245 256.453 239.676 259.866 237.952C262.623 236.559 262.061 227.842 263.662 206.997C263.662 206.997 264.588 222.549 268.26 228.256" stroke="#1467A3" stroke-width="3.5" stroke-linecap="round" stroke-linejoin="round"/>
<path d="M269.113 194.757C266.9 194.053 270.722 188.856 273.841 206.997" stroke="#1467A3" stroke-width="3.5" stroke-linecap="round" stroke-linejoin="round"/>
<path d="M312.213 187.782C307.532 196.349 301.443 198.467 299.202 193.157C295.664 184.774 299.308 166.968 305.42 167.957C308.264 168.417 305.527 182.01 296.366 184.064C291.615 185.129 286.872 179.844 283.047 193.319" stroke="#1467A3" stroke-width="3.5" stroke-linecap="round" stroke-linejoin="round"/>
<path d="M271.125 327.251C264.906 343.43 261.69 339.893 259.431 334.16C255.865 325.109 261.246 306.504 264.231 308.557C268.315 311.366 264.853 326.112 256.695 332.372" stroke="#1467A3" stroke-width="3.5" stroke-linecap="round" stroke-linejoin="round"/>
<path d="M322.387 273.172C316.794 287.722 311.412 285.372 309.38 280.216C306.173 272.076 311.325 255.76 314.527 256.36C316.902 256.805 319.897 265.863 308.58 277.64" stroke="#1467A3" stroke-width="3.5" stroke-linecap="round" stroke-linejoin="round"/>
<path d="M282.535 186.832C283.527 202.8 286.503 217.18 286.503 217.18" stroke="#1467A3" stroke-width="3.5" stroke-linecap="round" stroke-linejoin="round"/>
<path d="M225.836 310.074C225.496 343.722 224.021 372.415 225.095 371.728C227.716 370.05 230.533 364.694 233.34 357.121" stroke="#1467A3" stroke-width="3.5" stroke-linecap="round" stroke-linejoin="round"/>
<path d="M218.383 358.054C224.419 353.23 229.025 344.302 229.025 344.302" stroke="#1467A3" stroke-width="3.5" stroke-linecap="round" stroke-linejoin="round"/>
<path d="M340.361 200.676C340.055 230.937 342.879 256.741 343.845 256.123C346.202 254.614 352.262 243.609 354.786 236.799" stroke="#1467A3" stroke-width="3.5" stroke-linecap="round" stroke-linejoin="round"/>
<path d="M337.809 241.334C343.316 236.023 347.379 228.138 347.379 228.138" stroke="#1467A3" stroke-width="3.5" stroke-linecap="round" stroke-linejoin="round"/>
<path d="M234.906 289.174L239.598 358.152C239.598 358.152 237.645 327.942 244.326 326.571C251.75 325.048 251.718 348.096 251.718 348.096" stroke="#1467A3" stroke-width="3.5" stroke-linecap="round" stroke-linejoin="round"/>
<path d="M289.914 244.096L293.304 307.79C293.304 307.79 291.546 280.621 297.555 279.388C300.784 278.726 303.176 284.18 304.235 288.97C306.297 298.299 302.84 310.677 296.581 304.352" stroke="#1467A3" stroke-width="3.5" stroke-linecap="round" stroke-linejoin="round"/>
<path d="M330.27 236.798C326.026 241.086 322.992 250.188 325.127 253.839C327.086 257.189 334.384 253.162 336.612 258.83C338.036 262.452 336.643 270.268 328.605 275.576" stroke="#1467A3" stroke-width="3.5" stroke-linecap="round" stroke-linejoin="round"/>
<path d="M359.242 470.983L162.229 406.615V61.4448L359.242 125.813C373.979 130.628 385.927 146.479 385.927 161.216V453.017C385.927 467.754 373.979 475.798 359.242 470.983Z" fill="url(#paint8_linear_4_7944)"/>
<g opacity="0.7">
<path d="M172.68 84.8467L353.34 143.873C360.195 146.113 366.924 154.702 366.924 161.215V453.017C366.924 453.131 366.923 453.238 366.918 453.337C366.485 453.283 365.891 453.167 365.14 452.922L172.68 390.041" stroke="white" stroke-width="4" stroke-linecap="round" stroke-linejoin="round" stroke-dasharray="8 16"/>
</g>
<g opacity="0.6">
<path d="M359.242 125.813L162.229 61.4448V70.5538L349.26 131.661C363.997 136.476 375.944 152.327 375.944 167.064V458.865C375.944 464.22 374.361 468.685 371.645 471.977C380.134 470.284 385.927 463.275 385.927 453.017V161.216C385.927 146.479 373.979 130.628 359.242 125.813Z" fill="url(#paint9_radial_4_7944)"/>
</g>
<g opacity="0.7">
<path d="M173.68 84.8467L354.34 143.873C361.195 146.113 367.924 154.702 367.924 161.215V453.017C367.924 453.131 367.923 453.238 367.918 453.337C367.485 453.283 366.891 453.167 366.14 452.922L173.68 390.041" stroke="#561D18" stroke-width="7" stroke-linecap="round" stroke-linejoin="round" stroke-dasharray="8 16"/>
</g>
<g opacity="0.48">
<path d="M337.825 253.635L292.926 233.691L273.825 178.135C269.797 166.42 257.503 162.791 253.475 172.128L234.374 216.407L189.475 209.843C180.007 208.459 176.207 221.571 183.186 231.547L197.057 251.375C201.573 257.831 207.759 262.001 213.866 262.704L267.14 268.837C269.167 269.07 270.091 272.68 268.295 273.352L222.108 290.634C216.831 292.609 213.114 297.713 211.963 304.569L207.632 330.355C205.808 341.215 215.755 352.948 224.096 349.776L263.65 334.736L303.204 373.128C311.545 381.224 321.492 375.363 319.668 363.427L311.019 306.823L344.114 279.052C351.093 273.196 347.293 257.84 337.825 253.635Z" fill="#843A2F"/>
</g>
<path d="M232.545 219.508L240.801 213.963L234.373 216.408L189.474 209.843C186.329 209.383 183.814 210.529 182.107 212.622L232.545 219.508Z" fill="#722D26"/>
<path d="M337.823 253.635L292.924 233.691L273.823 178.135C270.197 167.59 259.877 163.603 254.914 169.72C259.391 170.443 264.127 174.437 266.349 180.899L285.45 236.454L330.349 256.398C339.817 260.603 343.616 275.959 336.637 281.815L303.543 309.586L312.192 366.19C312.888 370.743 311.867 374.408 309.88 376.756C315.964 377.708 321.009 372.22 319.666 363.427L311.017 306.823L344.112 279.052C351.091 273.196 347.291 257.84 337.823 253.635Z" fill="#722D26"/>
<path d="M240.803 213.963L259.904 169.684C260.389 168.559 260.997 167.628 261.693 166.871C258.313 166.583 255.166 168.211 253.476 172.129L234.375 216.407L240.803 213.963Z" fill="#B25747"/>
<path d="M267.141 268.837C269.058 269.058 269.984 272.294 268.562 273.214L274.723 270.908C276.519 270.236 275.596 266.626 273.569 266.393L220.295 260.26C214.188 259.557 208.002 255.387 203.486 248.931L189.615 229.103C184.806 222.228 185.116 213.865 188.872 209.782C179.852 209.034 176.359 221.787 183.187 231.547L197.058 251.375C201.574 257.831 207.76 262.001 213.867 262.704L267.141 268.837Z" fill="#B25747"/>
<path d="M214.061 327.911L218.391 302.126C219.477 295.656 222.85 290.748 227.661 288.556L222.108 290.634C216.831 292.608 213.114 297.714 211.963 304.57L207.633 330.355C205.809 341.215 215.755 352.949 224.096 349.777L230.524 347.333C222.183 350.504 212.237 338.771 214.061 327.911Z" fill="#B25747"/>
<path d="M309.632 370.685L270.078 332.293L263.65 334.737L303.204 373.129C308.177 377.956 313.718 377.82 316.998 374.395C314.626 374.211 312.062 373.044 309.632 370.685Z" fill="#B25747"/>
<path d="M359.242 470.983L162.229 406.615V61.4448L359.242 125.813C373.979 130.628 385.927 146.479 385.927 161.216V453.017C385.927 467.754 373.979 475.798 359.242 470.983Z" stroke="#3D1A12" stroke-width="8" stroke-linecap="round" stroke-linejoin="round"/>
<path d="M359.242 125.813C373.98 130.628 385.926 146.479 385.926 161.216V453.017" stroke="#6D2C26" stroke-width="8" stroke-linecap="round" stroke-linejoin="round"/>
<path d="M194.082 71.8521L274.236 98.0401L278.522 99.4401" stroke="#6D2C26" stroke-width="8" stroke-linecap="round" stroke-linejoin="round"/>
<path d="M320.754 112.459L372 91.7808" stroke="#4F2016" stroke-width="8" stroke-linecap="round" stroke-linejoin="round"/>
<path d="M326.225 114.367L377.471 93.689" stroke="#3A180F" stroke-width="8" stroke-linecap="round" stroke-linejoin="round"/>
<path d="M331.727 116.343L382.973 95.6646" stroke="#4F2016" stroke-width="8" stroke-linecap="round" stroke-linejoin="round"/>
<path d="M320.754 466.959V112.459" stroke="#351010" stroke-width="8" stroke-linecap="round" stroke-linejoin="round"/>
<path d="M326.227 468.867V114.367" stroke="#260A0A" stroke-width="8" stroke-linecap="round" stroke-linejoin="round"/>
<path d="M331.727 470.843V116.343" stroke="#351010" stroke-width="8" stroke-linecap="round" stroke-linejoin="round"/>
<g opacity="0.2">
<path d="M94.3789 143.34V252.2C97.7789 251.009 100.313 247.785 100.313 243.853V153.54C100.313 149.233 97.9679 145.388 94.3789 143.34Z" fill="#072426"/>
<path d="M94.3789 143.34V252.2C97.7789 251.009 100.313 247.785 100.313 243.853V153.54C100.313 149.233 97.9679 145.388 94.3789 143.34Z" stroke="#072426" stroke-width="8" stroke-linecap="round" stroke-linejoin="round"/>
</g>
<path d="M95.015 116.636C90.043 115.541 85.334 119.326 85.334 124.417V225.263L104.24 229.426V128.112C104.24 122.596 100.402 117.822 95.015 116.636Z" fill="#04B1B5"/>
<path d="M95.015 116.636C90.043 115.541 85.334 119.326 85.334 124.417V225.263L104.24 229.426V128.112C104.24 122.596 100.402 117.822 95.015 116.636Z" stroke="#007484" stroke-width="8" stroke-linecap="round" stroke-linejoin="round"/>
<path d="M104.239 229.426L85.3334 225.263L84.1284 232.797C83.3974 237.363 86.3544 241.707 90.8704 242.701C96.7644 243.999 102.535 240.069 103.489 234.11L104.239 229.426Z" fill="#04B1B5"/>
<path d="M104.239 229.426L85.3334 225.263L84.1284 232.797C83.3974 237.363 86.3544 241.707 90.8704 242.701C96.7644 243.999 102.535 240.069 103.489 234.11L104.239 229.426Z" stroke="#038993" stroke-width="8" stroke-linecap="round" stroke-linejoin="round"/>
<path d="M104.24 128.112C104.24 122.596 100.403 117.822 95.0156 116.636" stroke="#0A95A0" stroke-width="8" stroke-linecap="round" stroke-linejoin="round"/>
<path d="M104.463 431.149L110.064 454.717C110.227 455.403 111.203 455.403 111.366 454.717L116.967 431.149H104.463Z" fill="url(#paint10_radial_4_7944)"/>
<path d="M104.463 431.149L110.064 454.717C110.227 455.403 111.203 455.403 111.366 454.717L116.967 431.149H104.463Z" stroke="#8E9BA8" stroke-width="6" stroke-linecap="round" stroke-linejoin="round"/>
<g opacity="0.6">
<path d="M94.3789 80.7476V394.195C94.3789 401.804 95.5749 409.366 97.9229 416.603L103.386 433.445C104.823 434.292 107.565 434.866 110.715 434.866C113.865 434.866 116.607 434.293 118.044 433.445L123.507 416.603C125.855 409.366 127.051 401.804 127.051 394.195V80.7476H94.3789Z" fill="url(#paint11_linear_4_7944)"/>
</g>
<g opacity="0.6">
<path d="M117.797 80.7476V394.195C117.797 401.804 116.895 409.366 115.126 416.603L111.01 433.445C110.629 433.743 110.121 434.004 109.527 434.221C110.623 434.622 112.027 434.866 113.566 434.866C115.94 434.866 118.005 434.293 119.088 433.445L123.205 416.603C124.974 409.366 125.875 401.804 125.875 394.195V80.7476H117.797Z" fill="url(#paint12_radial_4_7944)"/>
</g>
<g opacity="0.6">
<path d="M107.447 80.7476V394.195C107.447 401.804 107.899 409.366 108.786 416.603L110.85 433.445C111.041 433.743 111.296 434.004 111.594 434.221C111.044 434.622 110.34 434.866 109.568 434.866C108.378 434.866 107.342 434.293 106.799 433.445L104.735 416.603C103.848 409.366 103.396 401.804 103.396 394.195V80.7476H107.447Z" fill="url(#paint13_radial_4_7944)"/>
</g>
<path d="M110.5 87.9995V435.25" stroke="#04B1B5" stroke-width="10"/>
<g opacity="0.4">
<path d="M94.3789 107.761C94.3789 110.741 101.693 113.157 110.715 113.157C119.737 113.157 127.051 110.741 127.051 107.761" stroke="#E9FFFE" stroke-width="8" stroke-linecap="round" stroke-linejoin="round"/>
</g>
<path d="M94.3789 80.7476V394.195C94.3789 401.804 95.5749 409.366 97.9229 416.603L103.386 433.445C104.823 434.292 107.565 434.866 110.715 434.866C113.865 434.866 116.607 434.293 118.044 433.445L123.507 416.603C125.855 409.366 127.051 401.804 127.051 394.195V80.7476H94.3789Z" stroke="#007484" stroke-width="8" stroke-linecap="round" stroke-linejoin="round"/>
<path d="M94.3789 102.761C94.3789 105.741 101.693 108.157 110.715 108.157C119.737 108.157 127.051 105.741 127.051 102.761" stroke="#007484" stroke-width="8" stroke-linecap="round" stroke-linejoin="round"/>
<path d="M127.051 80.7476C127.051 83.7276 119.737 86.1436 110.715 86.1436C101.693 86.1436 94.3789 83.7276 94.3789 80.7476C94.3789 77.7676 101.693 75.3516 110.715 75.3516C119.737 75.3516 127.051 77.7676 127.051 80.7476Z" fill="#04B1B5"/>
<path d="M127.051 80.7476C127.051 83.7276 119.737 86.1436 110.715 86.1436C101.693 86.1436 94.3789 83.7276 94.3789 80.7476C94.3789 77.7676 101.693 75.3516 110.715 75.3516C119.737 75.3516 127.051 77.7676 127.051 80.7476Z" stroke="#0A95A0" stroke-width="8" stroke-linecap="round" stroke-linejoin="round"/>
<path d="M102.273 48.6689V76.6239C102.273 77.7919 106.052 78.7389 110.714 78.7389C115.376 78.7389 119.155 77.7919 119.155 76.6239V48.6689H102.273Z" fill="url(#paint14_linear_4_7944)"/>
<g opacity="0.4">
<path d="M102.709 52.1025C102.709 53.5635 106.293 54.7465 110.715 54.7465C115.137 54.7465 118.721 53.5635 118.721 52.1025" stroke="#E9FFFE" stroke-width="8" stroke-linecap="round" stroke-linejoin="round"/>
</g>
<path d="M102.273 48.6689V76.6239C102.273 77.7919 106.052 78.7389 110.714 78.7389C115.376 78.7389 119.155 77.7919 119.155 76.6239V48.6689H102.273Z" stroke="#007484" stroke-width="8" stroke-linecap="round" stroke-linejoin="round"/>
<path d="M119.155 48.6687C119.155 49.8367 115.376 50.7837 110.714 50.7837C106.052 50.7837 102.273 49.8367 102.273 48.6687C102.273 47.5007 106.052 46.5537 110.714 46.5537C115.376 46.5537 119.155 47.5007 119.155 48.6687Z" fill="#04B1B5"/>
<path d="M119.155 48.6687C119.155 49.8367 115.376 50.7837 110.714 50.7837C106.052 50.7837 102.273 49.8367 102.273 48.6687C102.273 47.5007 106.052 46.5537 110.714 46.5537C115.376 46.5537 119.155 47.5007 119.155 48.6687Z" stroke="#0A95A0" stroke-width="8" stroke-linecap="round" stroke-linejoin="round"/>
<g opacity="0.2">
<path d="M94.3789 143.34V252.2C97.7789 251.009 100.313 247.785 100.313 243.853V153.54C100.313 149.233 97.9679 145.388 94.3789 143.34Z" fill="#072426"/>
<path d="M94.3789 143.34V252.2C97.7789 251.009 100.313 247.785 100.313 243.853V153.54C100.313 149.233 97.9679 145.388 94.3789 143.34Z" stroke="#072426" stroke-width="8" stroke-linecap="round" stroke-linejoin="round"/>
</g>
<path d="M95.015 116.636C90.043 115.541 85.334 119.326 85.334 124.417V225.263L104.24 229.426V128.112C104.24 122.596 100.402 117.822 95.015 116.636Z" fill="#04B1B5"/>
<path d="M95.015 116.636C90.043 115.541 85.334 119.326 85.334 124.417V225.263L104.24 229.426V128.112C104.24 122.596 100.402 117.822 95.015 116.636Z" stroke="#007484" stroke-width="8" stroke-linecap="round" stroke-linejoin="round"/>
<path d="M104.239 229.426L85.3334 225.263L84.1284 232.797C83.3974 237.363 86.3544 241.707 90.8704 242.701C96.7644 243.999 102.535 240.069 103.489 234.11L104.239 229.426Z" fill="#04B1B5"/>
<path d="M104.239 229.426L85.3334 225.263L84.1284 232.797C83.3974 237.363 86.3544 241.707 90.8704 242.701C96.7644 243.999 102.535 240.069 103.489 234.11L104.239 229.426Z" stroke="#038993" stroke-width="8" stroke-linecap="round" stroke-linejoin="round"/>
<path d="M104.24 128.112C104.24 122.596 100.403 117.822 95.0156 116.636" stroke="#0A95A0" stroke-width="8" stroke-linecap="round" stroke-linejoin="round"/>
</g>
</g>
<defs>
<linearGradient id="paint0_linear_4_7944" x1="294.001" y1="371" x2="294.001" y2="148.174" gradientUnits="userSpaceOnUse">
<stop stop-color="#EAE2CC"/>
<stop offset="0.59" stop-color="#F3EEE1"/>
<stop offset="1" stop-color="#FBFAF6"/>
</linearGradient>
<linearGradient id="paint1_linear_4_7944" x1="306.001" y1="378" x2="306.001" y2="168.92" gradientUnits="userSpaceOnUse">
<stop stop-color="#EAE2CC"/>
<stop offset="0.59" stop-color="#F3EEE1"/>
<stop offset="1" stop-color="#FBFAF6"/>
</linearGradient>
<linearGradient id="paint2_linear_4_7944" x1="306.001" y1="49.9996" x2="306.001" y2="460.933" gradientUnits="userSpaceOnUse">
<stop offset="0.32" stop-color="#CCBB96"/>
<stop offset="0.66" stop-color="#C3B08C"/>
<stop offset="1" stop-color="#BAA582"/>
</linearGradient>
<linearGradient id="paint3_linear_4_7944" x1="296.001" y1="324" x2="296.001" y2="142.614" gradientUnits="userSpaceOnUse">
<stop stop-color="#EAE2CC"/>
<stop offset="0.59" stop-color="#F3EEE1"/>
<stop offset="1" stop-color="#FBFAF6"/>
</linearGradient>
<linearGradient id="paint4_linear_4_7944" x1="296.001" y1="52.9996" x2="296.001" y2="463.934" gradientUnits="userSpaceOnUse">
<stop offset="0.32" stop-color="#CCBB96"/>
<stop offset="0.66" stop-color="#C3B08C"/>
<stop offset="1" stop-color="#BAA582"/>
</linearGradient>
<linearGradient id="paint5_linear_4_7944" x1="287" y1="309" x2="287" y2="132.542" gradientUnits="userSpaceOnUse">
<stop stop-color="#EAE2CC"/>
<stop offset="0.59" stop-color="#F3EEE1"/>
<stop offset="1" stop-color="#FBFAF6"/>
</linearGradient>
<linearGradient id="paint6_linear_4_7944" x1="287" y1="56.9996" x2="287" y2="467.934" gradientUnits="userSpaceOnUse">
<stop offset="0.32" stop-color="#CCBB96"/>
<stop offset="0.66" stop-color="#C3B08C"/>
<stop offset="1" stop-color="#BAA582"/>
</linearGradient>
<linearGradient id="paint7_linear_4_7944" x1="174" y1="54.9998" x2="201.032" y2="54.9998" gradientUnits="userSpaceOnUse">
<stop stop-color="#EAE2CC"/>
<stop offset="0.59" stop-color="#F3EEE1"/>
<stop offset="1" stop-color="#FBFAF6"/>
</linearGradient>
<linearGradient id="paint8_linear_4_7944" x1="-60.4955" y1="612" x2="-24.0815" y2="612" gradientUnits="userSpaceOnUse">
<stop offset="0.04" stop-color="#78342E"/>
<stop offset="0.52" stop-color="#884137"/>
<stop offset="1" stop-color="#994E3F"/>
</linearGradient>
<radialGradient id="paint9_radial_4_7944" cx="0" cy="0" r="1" gradientUnits="userSpaceOnUse" gradientTransform="translate(449 167) scale(249.538 249.538)">
<stop stop-color="white" stop-opacity="0.5"/>
<stop offset="0.59" stop-color="white" stop-opacity="0.25"/>
<stop offset="1" stop-color="white" stop-opacity="0"/>
</radialGradient>
<radialGradient id="paint10_radial_4_7944" cx="0" cy="0" r="1" gradientUnits="userSpaceOnUse" gradientTransform="translate(118.75 432.5) scale(16.0897)">
<stop offset="0.46" stop-color="#B9BEC7"/>
<stop offset="0.69" stop-color="#CFD2D9"/>
<stop offset="0.93" stop-color="#E5E7EB"/>
</radialGradient>
<linearGradient id="paint11_linear_4_7944" x1="124.75" y1="257.5" x2="107.941" y2="257.5" gradientUnits="userSpaceOnUse">
<stop stop-color="#04D0DF"/>
<stop offset="0.63" stop-color="#04C1CA"/>
<stop offset="1" stop-color="#04B1B5"/>
</linearGradient>
<radialGradient id="paint12_radial_4_7944" cx="0" cy="0" r="1" gradientUnits="userSpaceOnUse" gradientTransform="translate(157.995 219.629) scale(198.785)">
<stop stop-color="white"/>
<stop offset="0.59" stop-color="white" stop-opacity="0.5"/>
<stop offset="1" stop-color="white" stop-opacity="0"/>
</radialGradient>
<radialGradient id="paint13_radial_4_7944" cx="0" cy="0" r="1" gradientUnits="userSpaceOnUse" gradientTransform="translate(64.4605 319.368) scale(84.9314 84.9314)">
<stop stop-color="white" stop-opacity="0.8"/>
<stop offset="0.59" stop-color="white" stop-opacity="0.4"/>
<stop offset="1" stop-color="white" stop-opacity="0"/>
</radialGradient>
<linearGradient id="paint14_linear_4_7944" x1="115.749" y1="63.4999" x2="107.279" y2="63.4999" gradientUnits="userSpaceOnUse">
<stop stop-color="#04D0DF"/>
<stop offset="0.63" stop-color="#04C1CA"/>
<stop offset="1" stop-color="#04B1B5"/>
</linearGradient>
<clipPath id="clip0_4_7944">
<rect width="512" height="512" fill="white"/>
</clipPath>
</defs>
</svg>
